<?xml version="1.0" encoding="UTF-8"?>
<svg xmlns="http://www.w3.org/2000/svg" xmlns:xlink="http://www.w3.org/1999/xlink" width="80pt" height="80pt" viewBox="0 0 80 80" version="1.1">
<defs>
<filter id="alpha" filterUnits="objectBoundingBox" x="0%" y="0%" width="100%" height="100%">
  <feColorMatrix type="matrix" in="SourceGraphic" values="0 0 0 0 1 0 0 0 0 1 0 0 0 0 1 0 0 0 1 0"/>
</filter>
<mask id="mask0">
  <g filter="url(#alpha)">
<rect x="0" y="0" width="80" height="80" style="fill:rgb(0%,0%,0%);fill-opacity:0.101961;stroke:none;"/>
  </g>
</mask>
<clipPath id="clip1">
  <rect width="80" height="80"/>
</clipPath>
<g id="surface6" clip-path="url(#clip1)">
<path style=" stroke:none;fill-rule:nonzero;fill:rgb(0.392157%,0.392157%,0.392157%);fill-opacity:1;" d="M 78.9375 42.300781 L 43.570312 77.6875 C 42.621094 78.640625 41.351562 79.167969 40 79.167969 C 38.648438 79.167969 37.378906 78.640625 36.425781 77.683594 L 1.0625 42.300781 C 0.648438 41.886719 0.335938 41.40625 0.0898438 40.890625 C 0.273438 41.878906 0.742188 42.789062 1.464844 43.511719 L 36.460938 78.53125 C 37.40625 79.480469 38.660156 80 40 80 C 41.339844 80 42.59375 79.480469 43.535156 78.535156 L 78.535156 43.511719 C 79.257812 42.789062 79.730469 41.878906 79.910156 40.890625 C 79.664062 41.40625 79.351562 41.886719 78.9375 42.300781 Z M 78.9375 42.300781 "/>
</g>
<mask id="mask1">
  <g filter="url(#alpha)">
<rect x="0" y="0" width="80" height="80" style="fill:rgb(0%,0%,0%);fill-opacity:0.2;stroke:none;"/>
  </g>
</mask>
<clipPath id="clip2">
  <rect width="80" height="80"/>
</clipPath>
<g id="surface9" clip-path="url(#clip2)">
<path style=" stroke:none;fill-rule:nonzero;fill:rgb(100%,100%,100%);fill-opacity:1;" d="M 1.460938 37.273438 L 36.464844 2.25 C 38.347656 0.363281 41.652344 0.359375 43.539062 2.253906 L 78.535156 37.273438 C 78.535156 37.273438 78.535156 37.273438 78.539062 37.273438 C 79.378906 38.121094 79.863281 39.21875 79.960938 40.394531 C 79.972656 40.253906 80 40.117188 80 39.976562 C 80 38.640625 79.480469 37.386719 78.539062 36.441406 C 78.535156 36.441406 78.535156 36.4375 78.535156 36.4375 L 43.539062 1.417969 C 41.648438 -0.472656 38.347656 -0.472656 36.464844 1.417969 L 1.460938 36.441406 C 0.519531 37.386719 0 38.640625 0 39.976562 C 0 40.117188 0.0273438 40.253906 0.0390625 40.390625 C 0.136719 39.21875 0.621094 38.121094 1.460938 37.273438 Z M 1.460938 37.273438 "/>
</g>
<linearGradient id="linear0" gradientUnits="userSpaceOnUse" x1="9.669266" y1="9.676086" x2="18.306595" y2="18.313416" gradientTransform="matrix(3.333333,0,0,3.333333,0,0)">
<stop offset="0" style="stop-color:rgb(0.392157%,0.392157%,0.392157%);stop-opacity:0.101961;"/>
<stop offset="1" style="stop-color:rgb(0.392157%,0.392157%,0.392157%);stop-opacity:0;"/>
</linearGradient>
<linearGradient id="linear1" gradientUnits="userSpaceOnUse" x1="2.013819" y1="7.33992" x2="21.983366" y2="16.651873" gradientTransform="matrix(3.333333,0,0,3.333333,0,0)">
<stop offset="0" style="stop-color:rgb(100%,100%,100%);stop-opacity:0.2;"/>
<stop offset="1" style="stop-color:rgb(100%,100%,100%);stop-opacity:0;"/>
</linearGradient>
</defs>
<g id="surface1">
<path style=" stroke:none;fill-rule:nonzero;fill:rgb(93.72549%,27.843137%,23.137255%);fill-opacity:1;" d="M 78.539062 36.441406 C 78.535156 36.441406 78.535156 36.4375 78.535156 36.4375 L 43.539062 1.417969 C 41.648438 -0.472656 38.347656 -0.472656 36.464844 1.417969 L 1.460938 36.441406 C 0.519531 37.386719 0 38.640625 0 39.976562 C 0 41.3125 0.519531 42.570312 1.464844 43.511719 L 36.460938 78.53125 C 37.40625 79.480469 38.660156 80 40 80 C 41.339844 80 42.59375 79.480469 43.535156 78.535156 L 78.535156 43.511719 C 79.480469 42.570312 80 41.3125 80 39.976562 C 80 38.640625 79.480469 37.386719 78.539062 36.441406 Z M 78.539062 36.441406 "/>
<use xlink:href="#surface6" mask="url(#mask0)"/>
<path style=" stroke:none;fill-rule:nonzero;fill:rgb(100%,100%,100%);fill-opacity:1;" d="M 56.667969 33.332031 C 55.417969 33.332031 54.261719 33.699219 53.257812 34.300781 L 45.699219 26.742188 C 46.300781 25.738281 46.667969 24.582031 46.667969 23.332031 C 46.667969 19.65625 43.675781 16.667969 40 16.667969 C 38.765625 16.667969 37.625 17.027344 36.632812 17.613281 L 28.453125 9.433594 L 26.097656 11.789062 L 34.277344 19.96875 C 33.691406 20.960938 33.332031 22.101562 33.332031 23.332031 C 33.332031 26.429688 35.464844 29.019531 38.332031 29.761719 L 38.332031 50.238281 C 35.464844 50.980469 33.332031 53.570312 33.332031 56.667969 C 33.332031 60.34375 36.324219 63.332031 40 63.332031 C 43.675781 63.332031 46.667969 60.34375 46.667969 56.667969 C 46.667969 53.570312 44.535156 50.980469 41.667969 50.238281 L 41.667969 29.761719 C 42.253906 29.609375 42.808594 29.378906 43.324219 29.078125 L 50.921875 36.675781 C 50.351562 37.660156 50 38.785156 50 40 C 50 43.675781 52.992188 46.667969 56.667969 46.667969 C 60.34375 46.667969 63.332031 43.675781 63.332031 40 C 63.332031 36.324219 60.34375 33.332031 56.667969 33.332031 Z M 56.667969 33.332031 "/>
<use xlink:href="#surface9" mask="url(#mask1)"/>
<path style=" stroke:none;fill-rule:nonzero;fill:url(#linear0);" d="M 61.828125 35.835938 C 62.753906 36.980469 63.332031 38.417969 63.332031 40 C 63.332031 43.675781 60.34375 46.667969 56.667969 46.667969 C 52.992188 46.667969 50 43.675781 50 40 C 50 38.785156 50.351562 37.660156 50.921875 36.675781 L 43.324219 29.078125 C 42.808594 29.378906 42.253906 29.609375 41.667969 29.761719 L 41.667969 50.238281 C 44.535156 50.980469 46.667969 53.570312 46.667969 56.667969 C 46.667969 60.34375 43.675781 63.332031 40 63.332031 C 38.296875 63.332031 36.753906 62.671875 35.574219 61.613281 L 48.011719 74.054688 L 74.023438 48.027344 Z M 45.699219 26.742188 L 53.257812 34.300781 C 54.261719 33.699219 55.417969 33.332031 56.667969 33.332031 C 58.25 33.332031 59.6875 33.910156 60.832031 34.839844 L 45.242188 19.246094 L 45.230469 19.253906 C 46.117188 20.382812 46.667969 21.789062 46.667969 23.332031 C 46.667969 24.582031 46.300781 25.738281 45.699219 26.742188 Z M 45.699219 26.742188 "/>
<path style=" stroke:none;fill-rule:nonzero;fill:url(#linear1);" d="M 78.539062 36.441406 C 78.535156 36.441406 78.535156 36.4375 78.535156 36.4375 L 43.539062 1.417969 C 41.648438 -0.472656 38.347656 -0.472656 36.464844 1.417969 L 1.460938 36.441406 C 0.519531 37.386719 0 38.640625 0 39.976562 C 0 41.3125 0.519531 42.570312 1.464844 43.511719 L 36.460938 78.53125 C 37.40625 79.480469 38.660156 80 40 80 C 41.339844 80 42.59375 79.480469 43.535156 78.535156 L 78.535156 43.511719 C 79.480469 42.570312 80 41.3125 80 39.976562 C 80 38.640625 79.480469 37.386719 78.539062 36.441406 Z M 78.539062 36.441406 "/>
</g>
</svg>
