<?xml version="1.0" encoding="UTF-8"?>
<svg xmlns="http://www.w3.org/2000/svg" xmlns:xlink="http://www.w3.org/1999/xlink" width="40pt" height="40pt" viewBox="0 0 40 40" version="1.1">
<defs>
<filter id="alpha" filterUnits="objectBoundingBox" x="0%" y="0%" width="100%" height="100%">
  <feColorMatrix type="matrix" in="SourceGraphic" values="0 0 0 0 1 0 0 0 0 1 0 0 0 0 1 0 0 0 1 0"/>
</filter>
<mask id="mask0">
  <g filter="url(#alpha)">
<rect x="0" y="0" width="40" height="40" style="fill:rgb(0%,0%,0%);fill-opacity:0.101961;stroke:none;"/>
  </g>
</mask>
<clipPath id="clip1">
  <rect x="0" y="0" width="40" height="40"/>
</clipPath>
<g id="surface5" clip-path="url(#clip1)">
<path style=" stroke:none;fill-rule:nonzero;fill:rgb(0.392157%,0.392157%,0.392157%);fill-opacity:1;" d="M 39.46875 21.148438 L 21.785156 38.84375 C 21.3125 39.320312 20.675781 39.582031 20 39.582031 C 19.324219 39.582031 18.6875 39.320312 18.210938 38.84375 L 0.53125 21.148438 C 0.324219 20.941406 0.167969 20.703125 0.0429688 20.445312 C 0.136719 20.9375 0.371094 21.394531 0.730469 21.757812 L 18.230469 39.265625 C 18.703125 39.738281 19.332031 40 20 40 C 20.667969 40 21.296875 39.738281 21.769531 39.265625 L 39.269531 21.757812 C 39.628906 21.394531 39.863281 20.9375 39.957031 20.445312 C 39.832031 20.703125 39.675781 20.941406 39.46875 21.148438 Z M 39.46875 21.148438 "/>
</g>
<mask id="mask1">
  <g filter="url(#alpha)">
<rect x="0" y="0" width="40" height="40" style="fill:rgb(0%,0%,0%);fill-opacity:0.2;stroke:none;"/>
  </g>
</mask>
<clipPath id="clip2">
  <rect x="0" y="0" width="40" height="40"/>
</clipPath>
<g id="surface8" clip-path="url(#clip2)">
<path style=" stroke:none;fill-rule:nonzero;fill:rgb(100%,100%,100%);fill-opacity:1;" d="M 0.730469 18.636719 L 18.230469 1.125 C 19.171875 0.179688 20.824219 0.179688 21.769531 1.125 L 39.265625 18.636719 C 39.265625 18.636719 39.265625 18.636719 39.269531 18.636719 C 39.691406 19.058594 39.929688 19.609375 39.980469 20.195312 C 39.984375 20.125 40 20.058594 40 19.988281 C 40 19.320312 39.738281 18.691406 39.269531 18.21875 C 39.265625 18.21875 39.265625 18.21875 39.265625 18.21875 L 21.769531 0.710938 C 20.824219 -0.238281 19.171875 -0.234375 18.230469 0.707031 L 0.730469 18.21875 C 0.261719 18.691406 0 19.320312 0 19.988281 C 0 20.058594 0.015625 20.125 0.0195312 20.195312 C 0.0703125 19.609375 0.308594 19.058594 0.730469 18.636719 Z M 0.730469 18.636719 "/>
</g>
<linearGradient id="linear0" gradientUnits="userSpaceOnUse" x1="9.669266" y1="9.676086" x2="18.306595" y2="18.313416" gradientTransform="matrix(1.666667,0,0,1.666667,0,0)">
<stop offset="0" style="stop-color:rgb(0.392157%,0.392157%,0.392157%);stop-opacity:0.101961;"/>
<stop offset="1" style="stop-color:rgb(0.392157%,0.392157%,0.392157%);stop-opacity:0;"/>
</linearGradient>
<linearGradient id="linear1" gradientUnits="userSpaceOnUse" x1="2.013819" y1="7.33992" x2="21.983366" y2="16.651873" gradientTransform="matrix(1.666667,0,0,1.666667,0,0)">
<stop offset="0" style="stop-color:rgb(100%,100%,100%);stop-opacity:0.2;"/>
<stop offset="1" style="stop-color:rgb(100%,100%,100%);stop-opacity:0;"/>
</linearGradient>
</defs>
<g id="surface1">
<path style=" stroke:none;fill-rule:nonzero;fill:rgb(93.72549%,27.843137%,23.137255%);fill-opacity:1;" d="M 39.269531 18.21875 C 39.265625 18.21875 39.265625 18.21875 39.265625 18.21875 L 21.769531 0.710938 C 20.824219 -0.238281 19.171875 -0.234375 18.230469 0.707031 L 0.730469 18.21875 C 0.261719 18.691406 0 19.320312 0 19.988281 C 0 20.65625 0.261719 21.285156 0.730469 21.757812 L 18.230469 39.265625 C 18.703125 39.738281 19.332031 40 20 40 C 20.667969 40 21.296875 39.738281 21.769531 39.265625 L 39.269531 21.757812 C 39.738281 21.285156 40 20.65625 40 19.988281 C 40 19.320312 39.738281 18.691406 39.269531 18.21875 Z M 39.269531 18.21875 "/>
<use xlink:href="#surface5" mask="url(#mask0)"/>
<path style=" stroke:none;fill-rule:nonzero;fill:rgb(100%,100%,100%);fill-opacity:1;" d="M 28.332031 16.667969 C 27.707031 16.667969 27.128906 16.851562 26.628906 17.152344 L 22.847656 13.371094 C 23.148438 12.871094 23.332031 12.292969 23.332031 11.667969 C 23.332031 9.828125 21.835938 8.332031 20 8.332031 C 19.382812 8.332031 18.8125 8.511719 18.316406 8.804688 L 14.226562 4.714844 L 13.050781 5.894531 L 17.140625 9.984375 C 16.847656 10.480469 16.667969 11.050781 16.667969 11.667969 C 16.667969 13.214844 17.734375 14.507812 19.167969 14.882812 L 19.167969 25.117188 C 17.734375 25.492188 16.667969 26.785156 16.667969 28.332031 C 16.667969 30.171875 18.164062 31.667969 20 31.667969 C 21.835938 31.667969 23.332031 30.171875 23.332031 28.332031 C 23.332031 26.785156 22.265625 25.492188 20.832031 25.117188 L 20.832031 14.882812 C 21.128906 14.804688 21.402344 14.6875 21.660156 14.539062 L 25.460938 18.339844 C 25.175781 18.828125 25 19.390625 25 20 C 25 21.839844 26.496094 23.332031 28.332031 23.332031 C 30.171875 23.332031 31.667969 21.839844 31.667969 20 C 31.667969 18.160156 30.171875 16.667969 28.332031 16.667969 Z M 28.332031 16.667969 "/>
<use xlink:href="#surface8" mask="url(#mask1)"/>
<path style=" stroke:none;fill-rule:nonzero;fill:url(#linear0);" d="M 30.914062 17.917969 C 31.378906 18.488281 31.667969 19.207031 31.667969 20 C 31.667969 21.839844 30.171875 23.332031 28.332031 23.332031 C 26.496094 23.332031 25 21.839844 25 20 C 25 19.390625 25.175781 18.828125 25.460938 18.339844 L 21.660156 14.539062 C 21.402344 14.6875 21.128906 14.804688 20.832031 14.882812 L 20.832031 25.117188 C 22.265625 25.492188 23.332031 26.785156 23.332031 28.332031 C 23.332031 30.171875 21.835938 31.667969 20 31.667969 C 19.148438 31.667969 18.378906 31.335938 17.785156 30.808594 L 24.007812 37.027344 L 37.011719 24.015625 Z M 22.847656 13.371094 L 26.628906 17.152344 C 27.128906 16.851562 27.707031 16.667969 28.332031 16.667969 C 29.125 16.667969 29.84375 16.957031 30.417969 17.417969 L 22.621094 9.621094 L 22.617188 9.625 C 23.058594 10.191406 23.332031 10.894531 23.332031 11.667969 C 23.332031 12.292969 23.148438 12.871094 22.847656 13.371094 Z M 22.847656 13.371094 "/>
<path style=" stroke:none;fill-rule:nonzero;fill:url(#linear1);" d="M 39.269531 18.21875 C 39.265625 18.21875 39.265625 18.21875 39.265625 18.21875 L 21.769531 0.710938 C 20.824219 -0.238281 19.171875 -0.234375 18.230469 0.707031 L 0.730469 18.21875 C 0.261719 18.691406 0 19.320312 0 19.988281 C 0 20.65625 0.261719 21.285156 0.730469 21.757812 L 18.230469 39.265625 C 18.703125 39.738281 19.332031 40 20 40 C 20.667969 40 21.296875 39.738281 21.769531 39.265625 L 39.269531 21.757812 C 39.738281 21.285156 40 20.65625 40 19.988281 C 40 19.320312 39.738281 18.691406 39.269531 18.21875 Z M 39.269531 18.21875 "/>
</g>
</svg>
